<svg width="85" height="64" viewBox="0 0 85 64" fill="none" xmlns="http://www.w3.org/2000/svg">
<rect x="58.2896" y="8.72527" width="23.4121" height="44.0501" rx="2" fill="#D8ECFE"/>
<path fill-rule="evenodd" clip-rule="evenodd" d="M65.6226 52.7754H79.7017C80.8062 52.7754 81.7017 51.88 81.7017 50.7754V10.7253C81.7017 9.6207 80.8062 8.72527 79.7017 8.72527H65.6226C64.518 8.72527 63.6226 9.62069 63.6226 10.7253V50.7754C63.6226 51.88 64.518 52.7754 65.6226 52.7754Z" fill="#EAF6FF"/>
<circle cx="69.9869" cy="19.4424" r="4.96879" fill="#2D7EFF"/>
<path fill-rule="evenodd" clip-rule="evenodd" d="M71.6318 24.1324C70.1649 23.0909 69.2078 21.3784 69.2078 19.4424C69.2078 17.5063 70.1649 15.7939 71.6318 14.7523C73.5676 15.4313 74.9556 17.2747 74.9556 19.4424C74.9556 21.61 73.5676 23.4535 71.6318 24.1324Z" fill="#4E92FF"/>
<rect x="66.2499" y="28.3896" width="10.9371" height="2.17914" rx="1.08957" fill="#8AC9FE"/>
<rect x="62.2267" y="28.3896" width="2.79163" height="2.17914" rx="1.08957" fill="#8AC9FE"/>
<rect x="66.2499" y="33.6345" width="10.9371" height="2.17914" rx="1.08957" fill="#8AC9FE"/>
<rect x="62.2267" y="33.6345" width="2.79163" height="2.17914" rx="1.08957" fill="#8AC9FE"/>
<rect x="66.2499" y="38.8796" width="10.9371" height="2.17914" rx="1.08957" fill="#8AC9FE"/>
<rect x="62.2267" y="38.8796" width="2.79163" height="2.17914" rx="1.08957" fill="#8AC9FE"/>
<rect x="66.2499" y="44.1248" width="10.9371" height="2.17914" rx="1.08957" fill="#8AC9FE"/>
<rect x="62.2267" y="44.1248" width="2.79163" height="2.17914" rx="1.08957" fill="#8AC9FE"/>
<rect x="3.29834" y="8.72527" width="23.4121" height="44.0501" rx="2" fill="#D8ECFE"/>
<path fill-rule="evenodd" clip-rule="evenodd" d="M10.6313 52.7754H24.7104C25.815 52.7754 26.7104 51.88 26.7104 50.7754V10.7253C26.7104 9.6207 25.815 8.72527 24.7104 8.72527H10.6313C9.52678 8.72527 8.63135 9.62069 8.63135 10.7253V50.7754C8.63135 51.88 9.52678 52.7754 10.6313 52.7754Z" fill="#EAF6FF"/>
<circle cx="14.9956" cy="19.4424" r="4.96879" fill="#2D7EFF"/>
<path fill-rule="evenodd" clip-rule="evenodd" d="M16.6406 24.1324C15.1737 23.0909 14.2166 21.3784 14.2166 19.4424C14.2166 17.5063 15.1737 15.7939 16.6406 14.7523C18.5764 15.4313 19.9644 17.2747 19.9644 19.4424C19.9644 21.61 18.5764 23.4535 16.6406 24.1324Z" fill="#4E92FF"/>
<rect x="11.2587" y="28.3896" width="10.9371" height="2.17914" rx="1.08957" fill="#8AC9FE"/>
<rect x="7.23547" y="28.3896" width="2.79163" height="2.17914" rx="1.08957" fill="#8AC9FE"/>
<rect x="11.2587" y="33.6345" width="10.9371" height="2.17914" rx="1.08957" fill="#8AC9FE"/>
<rect x="7.23547" y="33.6345" width="2.79163" height="2.17914" rx="1.08957" fill="#8AC9FE"/>
<rect x="11.2587" y="38.8796" width="10.9371" height="2.17914" rx="1.08957" fill="#8AC9FE"/>
<rect x="7.23547" y="38.8796" width="2.79163" height="2.17914" rx="1.08957" fill="#8AC9FE"/>
<rect x="11.2587" y="44.1248" width="10.9371" height="2.17914" rx="1.08957" fill="#8AC9FE"/>
<rect x="7.23547" y="44.1248" width="2.79163" height="2.17914" rx="1.08957" fill="#8AC9FE"/>
<rect x="25.9954" y="2.94235" width="33" height="54" rx="2" fill="#D8ECFE"/>
<path fill-rule="evenodd" clip-rule="evenodd" d="M34.359 56.9424H56.9954C58.0999 56.9424 58.9954 56.0469 58.9954 54.9424V4.94235C58.9954 3.83778 58.0999 2.94235 56.9954 2.94235H34.359C33.2544 2.94235 32.359 3.83778 32.359 4.94235V54.9424C32.359 56.0469 33.2544 56.9424 34.359 56.9424Z" fill="#EAF6FF"/>
<path d="M25.9954 4.94235C25.9954 3.83778 26.8908 2.94235 27.9954 2.94235H56.9954C58.0999 2.94235 58.9954 3.83778 58.9954 4.94235V11.9424H25.9954V4.94235Z" fill="#2076FF"/>
<path fill-rule="evenodd" clip-rule="evenodd" d="M56.9954 2.94235H34.359C33.2544 2.94235 32.359 3.83778 32.359 4.94235V11.9424H58.9954V4.94235C58.9954 3.83778 58.0999 2.94235 56.9954 2.94235Z" fill="#3E88FF"/>
<rect x="32.2524" y="6.149" width="20.4858" height="2.17914" rx="1.08957" fill="#0059E7"/>
<rect x="33.1165" y="53.8271" width="18.7579" height="7.23059" rx="2" fill="#75AAFF"/>
<path fill-rule="evenodd" clip-rule="evenodd" d="M40.4666 53.8271H49.8744C50.979 53.8271 51.8744 54.7225 51.8744 55.8271V59.0576C51.8744 60.1622 50.979 61.0576 49.8744 61.0576H40.4666C39.8033 60.0122 39.4192 58.7721 39.4192 57.4424C39.4192 56.1126 39.8033 54.8725 40.4666 53.8271Z" fill="#89B6FF"/>
<rect x="36.2704" y="56.3528" width="12.4501" height="2.17914" rx="1.08957" fill="#5093FF"/>
<rect x="40.4225" y="17.5931" width="13.2896" height="2.17914" rx="1.08957" fill="#5093FF"/>
<rect x="40.4225" y="21.7568" width="13.2896" height="2.17914" rx="1.08957" fill="#5093FF"/>
<rect x="40.4225" y="25.921" width="13.2896" height="2.17914" rx="1.08957" fill="#5093FF"/>
<rect x="35.1792" y="32.2838" width="18.5328" height="2.17914" rx="1.08957" fill="#5093FF"/>
<rect x="31.156" y="32.2838" width="2.79163" height="2.17914" rx="1.08957" fill="#5093FF"/>
<rect x="35.1792" y="37.2698" width="18.5328" height="2.17914" rx="1.08957" fill="#5093FF"/>
<rect x="31.156" y="37.2698" width="2.79163" height="2.17914" rx="1.08957" fill="#5093FF"/>
<rect x="35.1792" y="42.2559" width="18.5328" height="2.17914" rx="1.08957" fill="#5093FF"/>
<rect x="31.156" y="42.2559" width="2.79163" height="2.17914" rx="1.08957" fill="#5093FF"/>
<rect x="35.1792" y="47.2421" width="18.5328" height="2.17914" rx="1.08957" fill="#5093FF"/>
<rect x="31.156" y="47.2421" width="2.79163" height="2.17914" rx="1.08957" fill="#5093FF"/>
<path fill-rule="evenodd" clip-rule="evenodd" d="M33.9963 17.9574C33.9957 17.943 33.9954 17.9286 33.9954 17.9141V17.2168C33.9954 16.6645 34.4431 16.2168 34.9954 16.2168C35.5477 16.2168 35.9954 16.6645 35.9954 17.2168V17.9141C35.9954 17.928 35.9951 17.9418 35.9945 17.9555H37.1866C37.7388 17.9555 38.1866 18.4033 38.1866 18.9555C38.1866 19.5078 37.7388 19.9555 37.1866 19.9555H34.0977C33.7019 19.9555 33.3811 20.2763 33.3811 20.6721C33.3811 21.0678 33.7019 21.3886 34.0977 21.3886H34.9544H35.435H35.47C36.9703 21.3886 38.1865 22.6048 38.1865 24.1051C38.1865 25.4258 37.2442 26.5263 35.9952 26.7709C35.9953 26.7775 35.9954 26.7842 35.9954 26.7908V27.4881C35.9954 28.0404 35.5477 28.4881 34.9954 28.4881C34.4431 28.4881 33.9954 28.0404 33.9954 27.4881V26.8217L32.3811 26.8217C31.8288 26.8217 31.3811 26.3739 31.3811 25.8217C31.3811 25.2694 31.8288 24.8217 32.3811 24.8217L35.47 24.8217C35.8657 24.8217 36.1865 24.5009 36.1865 24.1051C36.1865 23.7094 35.8657 23.3886 35.47 23.3886H35.435H34.9544H34.0977C32.5974 23.3886 31.3811 22.1724 31.3811 20.6721C31.3811 19.2057 32.543 18.0107 33.9963 17.9574Z" fill="#5093FF"/>
</svg>
