<svg width="24" height="24" viewBox="0 0 24 24" fill="none" xmlns="http://www.w3.org/2000/svg">
<circle cx="12" cy="12" r="12" fill="#F1F1F5"/>
<path d="M16.3539 8.53565C16.6497 8.24573 16.6545 7.77088 16.3646 7.47505C16.0746 7.17921 15.5998 7.17442 15.304 7.46435L16.3539 8.53565ZM12.4193 11.3415L11.8943 10.8058C11.8807 10.8193 11.8675 10.8332 11.8549 10.8476L12.4193 11.3415ZM12.4193 12.6585L11.8549 13.1524C11.8675 13.1668 11.8807 13.1807 11.8943 13.1942L12.4193 12.6585ZM15.304 16.5357C15.5998 16.8256 16.0746 16.8208 16.3646 16.525C16.6545 16.2291 16.6497 15.7543 16.3539 15.4643L15.304 16.5357ZM15.304 7.46435L11.8943 10.8058L12.9443 11.8772L16.3539 8.53565L15.304 7.46435ZM11.8943 13.1942L15.304 16.5357L16.3539 15.4643L12.9443 12.1229L11.8943 13.1942ZM11.8549 10.8476C11.2775 11.5074 11.2775 12.4926 11.8549 13.1524L12.9837 12.1646C12.9013 12.0704 12.9013 11.9296 12.9837 11.8354L11.8549 10.8476Z" fill="#92929D"/>
<path d="M7.47523 15.4643C7.1794 15.7543 7.17461 16.2291 7.46453 16.525C7.75445 16.8208 8.2293 16.8256 8.52514 16.5357L7.47523 15.4643ZM11.4098 12.6585L11.9348 13.1942C11.9484 13.1807 11.9616 13.1668 11.9742 13.1524L11.4098 12.6585ZM11.4098 11.3415L11.9742 10.8476C11.9616 10.8332 11.9484 10.8193 11.9348 10.8058L11.4098 11.3415ZM8.52514 7.46435C8.2293 7.17442 7.75445 7.17921 7.46453 7.47505C7.17461 7.77088 7.1794 8.24573 7.47523 8.53565L8.52514 7.46435ZM8.52514 16.5357L11.9348 13.1942L10.8849 12.1228L7.47523 15.4643L8.52514 16.5357ZM11.9348 10.8058L8.52514 7.46435L7.47523 8.53565L10.8849 11.8771L11.9348 10.8058ZM11.9742 13.1524C12.5516 12.4926 12.5516 11.5074 11.9742 10.8476L10.8454 11.8354C10.9278 11.9296 10.9278 12.0704 10.8454 12.1646L11.9742 13.1524Z" fill="#92929D"/>
</svg>
